<svg width="200" height="200" viewBox="0 0 200 200" fill="none" xmlns="http://www.w3.org/2000/svg">
    <style>
        @media (prefers-color-scheme: dark) {
            #circle {
                fill: #fff;
            }

            #code {
                fill: #003CFF;
            }
        }
        @media (prefers-color-scheme: light) {
            #circle {
                fill: #003CFF;
            }
            #code {
                fill: #e9f648;
            }
        }
    </style>

    <path id="circle" d="M100 183.333C146.025 183.333 183.333 146.025 183.333 100C183.333 53.975 146.025 16.6666 100 16.6666C53.975 16.6666 16.6667 53.975 16.6667 100C16.6667 146.025 53.975 183.333 100 183.333Z" fill="white"/>
    <path id="code" d="M112.4 53.7166C114 54.1463 115.363 55.1933 116.191 56.6277C117.019 58.0621 117.244 59.7665 116.817 61.3666L95.25 141.867C95.0372 142.659 94.6702 143.403 94.1702 144.054C93.6701 144.705 93.0467 145.251 92.3356 145.661C90.8993 146.489 89.1929 146.713 87.5917 146.283C85.9904 145.853 84.6255 144.805 83.7972 143.369C82.969 141.933 82.7451 140.226 83.175 138.625L104.75 58.1333C105.18 56.5337 106.227 55.1701 107.661 54.342C109.095 53.5138 110.8 53.2889 112.4 53.7166ZM124.75 70.5833C125.922 69.4129 127.51 68.7555 129.167 68.7555C130.823 68.7555 132.411 69.4129 133.583 70.5833L135.325 72.3166C140.617 77.6083 145.033 82.025 148.067 86C151.267 90.2 153.517 94.6333 153.517 100C153.517 105.367 151.267 109.8 148.067 114C145.033 117.975 140.617 122.392 135.317 127.683L133.583 129.417C133.011 130.031 132.321 130.523 131.554 130.865C130.788 131.206 129.96 131.39 129.121 131.405C128.282 131.42 127.448 131.265 126.67 130.951C125.892 130.637 125.185 130.169 124.591 129.575C123.998 128.982 123.53 128.275 123.216 127.497C122.901 126.718 122.747 125.885 122.762 125.046C122.777 124.206 122.96 123.379 123.302 122.612C123.643 121.845 124.136 121.155 124.75 120.583L126.175 119.15C131.858 113.467 135.667 109.65 138.125 106.417C140.483 103.333 141.017 101.533 141.017 100C141.017 98.4666 140.483 96.6666 138.125 93.5833C135.667 90.3583 131.858 86.5333 126.175 80.85L124.75 79.4166C123.58 78.2448 122.922 76.6562 122.922 75C122.922 73.3437 123.58 71.7552 124.75 70.5833ZM66.4167 70.5833C67.6015 69.4793 69.1685 68.8783 70.7877 68.9068C72.4069 68.9354 73.9517 69.5914 75.0968 70.7365C76.242 71.8816 76.8979 73.4264 76.9265 75.0456C76.955 76.6648 76.354 78.2318 75.25 79.4166L73.825 80.85C68.1417 86.5333 64.3417 90.35 61.875 93.5833C59.5167 96.6666 58.9917 98.4666 58.9917 100C58.9917 101.533 59.5167 103.333 61.875 106.417C64.3417 109.642 68.1417 113.467 73.825 119.15L75.2583 120.583C75.855 121.16 76.3308 121.85 76.658 122.613C76.9852 123.375 77.1572 124.196 77.164 125.025C77.1708 125.855 77.0123 126.678 76.6977 127.446C76.3831 128.214 75.9187 128.912 75.3316 129.498C74.7445 130.085 74.0464 130.549 73.2782 130.862C72.5099 131.176 71.6869 131.334 70.857 131.327C70.0271 131.319 69.2071 131.146 68.4447 130.818C67.6824 130.49 66.9929 130.014 66.4167 129.417L64.6833 127.683C59.3833 122.392 54.9667 117.975 51.9333 114C48.7333 109.8 46.4917 105.367 46.4917 100C46.4917 94.6333 48.7417 90.2 51.9333 86C54.9667 82.025 59.3833 77.6083 64.6833 72.3166L66.4167 70.5833Z" fill="#003CFF"/>
</svg>
