<svg width="50" height="50" viewBox="0 0 50 50" fill="none" xmlns="http://www.w3.org/2000/svg">
<path fill-rule="evenodd" clip-rule="evenodd" d="M20.7167 6.77081H29.2834C33.1125 6.77081 36.1459 6.77081 38.5188 7.08956C40.9604 7.41873 42.9375 8.1104 44.4979 9.66873C46.0563 11.2291 46.7479 13.2062 47.0771 15.6479C47.3959 18.0229 47.3959 21.0541 47.3959 24.8833V25.1166C47.3959 28.9458 47.3959 31.9791 47.0771 34.3521C46.7479 36.7937 46.0563 38.7708 44.4979 40.3312C42.9375 41.8896 40.9604 42.5812 38.5188 42.9104C36.1438 43.2291 33.1125 43.2291 29.2834 43.2291H20.7167C16.8875 43.2291 13.8542 43.2291 11.4813 42.9104C9.0396 42.5812 7.06252 41.8896 5.5021 40.3312C3.94377 38.7708 3.2521 36.7937 2.92294 34.3521C2.60419 31.9771 2.60419 28.9458 2.60419 25.1166V24.8833C2.60419 21.0541 2.60419 18.0208 2.92294 15.6479C3.2521 13.2062 3.94377 11.2291 5.5021 9.66873C7.06252 8.1104 9.0396 7.41873 11.4813 7.08956C13.8563 6.77081 16.8875 6.77081 20.7167 6.77081ZM11.8959 10.1875C9.80002 10.4687 8.59169 10.9979 7.70835 11.8791C6.82919 12.7604 6.30002 13.9687 6.01877 16.0646C5.73127 18.2062 5.7271 21.0271 5.7271 25C5.7271 28.9729 5.73127 31.7958 6.01877 33.9375C6.30002 36.0312 6.82919 37.2396 7.71044 38.1208C8.59169 39.0021 9.80002 39.5312 11.8959 39.8125C14.0375 40.1 16.8584 40.1041 20.8313 40.1041H29.1646C33.1375 40.1041 35.9604 40.1 38.1021 39.8125C40.1959 39.5312 41.4042 39.0021 42.2854 38.1208C43.1667 37.2396 43.6959 36.0312 43.9771 33.9354C44.2646 31.7937 44.2688 28.9729 44.2688 25C44.2688 21.0271 44.2646 18.2062 43.9771 16.0625C43.6959 13.9687 43.1667 12.7604 42.2854 11.8791C41.4042 10.9979 40.1959 10.4687 38.1 10.1875C35.9604 9.89998 33.1375 9.89581 29.1646 9.89581H20.8313C16.8584 9.89581 14.0396 9.89998 11.8959 10.1875ZM11.2959 15.6666C11.5611 15.3485 11.9419 15.1487 12.3544 15.1112C12.767 15.0737 13.1775 15.2015 13.4959 15.4666L18 19.2146C19.9438 20.8333 21.2917 21.9541 22.4334 22.6875C23.5354 23.3958 24.2834 23.6354 25.0021 23.6354C25.7209 23.6354 26.4688 23.3979 27.5709 22.6875C28.7104 21.9541 30.0604 20.8333 32.0042 19.2146L36.5021 15.4646C36.6598 15.3332 36.8419 15.2343 37.0378 15.1733C37.2338 15.1123 37.4399 15.0906 37.6443 15.1092C37.8487 15.1279 38.0474 15.1866 38.229 15.2821C38.4107 15.3776 38.5718 15.5079 38.7031 15.6656C38.8345 15.8233 38.9334 16.0054 38.9944 16.2013C39.0554 16.3973 39.0771 16.6034 39.0585 16.8078C39.0398 17.0121 38.9811 17.2109 38.8856 17.3925C38.7901 17.5742 38.6598 17.7353 38.5021 17.8666L33.9271 21.6791C32.0792 23.2208 30.5834 24.4666 29.2604 25.3166C27.8854 26.2021 26.5459 26.7604 25.0021 26.7604C23.4584 26.7604 22.1188 26.2 20.7417 25.3166C19.4209 24.4666 17.925 23.2187 16.0771 21.6812L11.5 17.8687C11.3422 17.7373 11.2118 17.5761 11.1163 17.3943C11.0208 17.2125 10.9621 17.0137 10.9435 16.8091C10.925 16.6046 10.9469 16.3985 11.0081 16.2024C11.0692 16.0064 11.1684 15.8243 11.3 15.6666" fill="white"/>
</svg>
