<svg width="50" height="45" viewBox="0 0 50 45" fill="none" xmlns="http://www.w3.org/2000/svg">
<g clip-path="url(#clip0_3_52)">
<path d="M41.11 14.6531C40.5778 14.4706 40.0412 14.3014 39.5006 14.1459C39.5914 13.7748 39.675 13.4082 39.7492 13.048C40.9676 7.13376 40.1711 2.36911 37.4506 0.800357C34.8422 -0.70355 30.5764 0.864614 26.2682 4.61403C25.8436 4.9842 25.4284 5.36505 25.023 5.75622C24.7517 5.49612 24.4755 5.24106 24.1947 4.99118C19.6795 0.982193 15.1537 -0.707456 12.4361 0.865786C9.83008 2.37438 9.0584 6.85348 10.1553 12.4586C10.2644 13.0137 10.3876 13.5659 10.5248 14.1148C9.88418 14.2968 9.26602 14.4906 8.67441 14.6968C3.38066 16.5425 0 19.4349 0 22.4351C0 25.5338 3.6293 28.6418 9.14297 30.5263C9.58998 30.6785 10.0407 30.8194 10.4947 30.9492C10.3473 31.5403 10.2164 32.1355 10.1021 32.734C9.05645 38.2418 9.87305 42.615 12.4721 44.114C15.1564 45.6621 19.6619 44.0711 24.0488 40.2361C24.4045 39.9243 24.7524 39.6037 25.0922 39.2746C25.5312 39.6981 25.9819 40.1094 26.4438 40.5078C30.6934 44.1644 34.8902 45.641 37.4867 44.1379C40.1686 42.5853 41.0402 37.8873 39.9086 32.1715C39.8194 31.7237 39.7195 31.2781 39.6088 30.8351C39.9252 30.7414 40.2357 30.6449 40.5385 30.5445C46.2705 28.6455 50 25.5752 50 22.4351C50 19.424 46.5102 16.5121 41.11 14.6531ZM39.8668 28.5172C39.5931 28.6075 39.3131 28.6951 39.027 28.7799C38.3941 26.7765 37.5402 24.6465 36.4951 22.4455C37.4924 20.297 38.3135 18.1941 38.9285 16.2039C39.44 16.3519 39.9363 16.508 40.4148 16.6726C45.0418 18.2656 47.8641 20.6205 47.8641 22.4351C47.8641 24.3679 44.816 26.8771 39.8668 28.5172ZM37.8133 32.5863C38.3137 35.1136 38.385 37.3988 38.0535 39.1853C37.7559 40.7906 37.157 41.8607 36.4164 42.2894C34.8408 43.2015 31.4711 42.016 27.8369 38.8886C27.4073 38.5182 26.9881 38.1359 26.5797 37.7422C27.9887 36.2013 29.3967 34.4101 30.7709 32.4207C33.1881 32.2062 35.4717 31.8554 37.5426 31.3767C37.6448 31.7884 37.735 32.1916 37.8133 32.5863ZM17.0461 42.1318C15.5066 42.6754 14.2805 42.691 13.5393 42.2636C11.9621 41.3541 11.3064 37.8425 12.2008 33.1324C12.3071 32.5758 12.4288 32.0223 12.5658 31.4724C14.6139 31.9256 16.8809 32.2513 19.3037 32.4478C20.6873 34.3945 22.1359 36.1838 23.5959 37.7506C23.2856 38.0508 22.968 38.3433 22.6434 38.6279C20.7033 40.3236 18.7594 41.5267 17.0461 42.1318ZM9.83398 28.5052C7.3959 27.6718 5.38242 26.5888 4.00234 25.407C2.76211 24.3451 2.13613 23.2906 2.13613 22.4351C2.13613 20.6144 4.85039 18.2922 9.37754 16.7138C9.92695 16.5224 10.502 16.3418 11.0986 16.1722C11.7244 18.2074 12.5451 20.3353 13.5355 22.4871C12.5322 24.6707 11.6998 26.8326 11.068 28.8918C10.6535 28.773 10.2421 28.6441 9.83398 28.5052ZM12.2516 12.0482C11.3119 7.24606 11.9359 3.6236 13.5064 2.71442C15.1791 1.74606 18.8779 3.12672 22.7766 6.58844C23.0308 6.81468 23.2809 7.04551 23.5268 7.28083C22.074 8.84079 20.6387 10.6168 19.2674 12.5519C16.9158 12.7699 14.6648 13.1199 12.5953 13.5888C12.4678 13.0783 12.3532 12.5645 12.2516 12.0482ZM33.8193 17.3742C33.3305 16.5298 32.8236 15.6961 32.2988 14.8736C33.8941 15.0754 35.4227 15.3431 36.858 15.6705C36.4271 17.0517 35.89 18.4957 35.2578 19.9761C34.7957 19.0993 34.3161 18.2318 33.8193 17.3742ZM25.024 8.80758C26.0092 9.87497 26.9959 11.0666 27.9664 12.3595C25.9977 12.2665 24.0256 12.2662 22.0568 12.3584C23.0283 11.0773 24.0234 9.88727 25.024 8.80758ZM16.1723 17.3886C15.6817 18.2394 15.2111 19.1015 14.7607 19.9742C14.1389 18.499 13.6066 17.0484 13.1721 15.6476C14.5986 15.3285 16.1199 15.0675 17.7051 14.8695C17.1745 15.6971 16.6634 16.5371 16.1723 17.3886ZM17.7506 30.1525C16.1129 29.9697 14.5688 29.7222 13.1426 29.4117C13.584 27.9859 14.1279 26.5045 14.7633 24.9976C15.2154 25.871 15.688 26.7336 16.1807 27.5847C16.6873 28.4597 17.2119 29.3168 17.7506 30.1525ZM25.083 36.2131C24.0705 35.1209 23.0607 33.9125 22.0746 32.6129C23.032 32.6504 24.008 32.6695 25 32.6695C26.0191 32.6695 27.0266 32.6466 28.0182 32.6025C27.0445 33.9256 26.0615 35.1357 25.083 36.2131ZM35.2779 24.9207C35.9463 26.4441 36.5096 27.9177 36.9568 29.3191C35.5072 29.65 33.942 29.9164 32.2928 30.1142C32.8213 29.2765 33.333 28.4282 33.8277 27.5701C34.3308 26.6978 34.8143 25.8145 35.2779 24.9207ZM31.9775 26.5029C31.2201 27.8186 30.4201 29.1093 29.5789 30.373C28.055 30.481 26.5277 30.5346 25 30.5338C23.4439 30.5338 21.9305 30.4853 20.473 30.3908C19.6098 29.13 18.7945 27.837 18.0291 26.5146C17.2672 25.1992 16.5557 23.8554 15.8959 22.4859C16.554 21.1161 17.2635 19.7716 18.0229 18.4552L18.0227 18.4554C18.7816 17.1387 19.5903 15.8512 20.4471 14.5959C21.934 14.4834 23.4588 14.4248 24.9998 14.4248C26.5479 14.4248 28.0748 14.484 29.5613 14.5972C30.4094 15.8507 31.213 17.1337 31.9705 18.4439C32.7322 19.7575 33.4511 21.0954 34.126 22.4556C33.458 23.8298 32.7414 25.1797 31.9775 26.5029ZM36.3838 2.65055C38.058 3.61618 38.7092 7.51012 37.6572 12.6166C37.5898 12.9426 37.5149 13.274 37.4326 13.6107C35.358 13.1318 33.1055 12.7757 30.7471 12.5545C29.3732 10.598 27.9496 8.8193 26.5205 7.27946C26.8951 6.91844 27.2785 6.56677 27.6705 6.22477C31.3619 3.01247 34.8119 1.74411 36.3838 2.65055ZM25 17.9703C27.4658 17.9703 29.4648 19.9693 29.4648 22.4351C29.4648 24.9009 27.4658 26.9 25 26.9C22.5342 26.9 20.5352 24.9009 20.5352 22.4351C20.5352 19.9693 22.5342 17.9703 25 17.9703Z" fill="#00D8FF"/>
</g>
<defs>
<clipPath id="clip0_3_52">
<rect width="50" height="44.5312" fill="white" transform="translate(0 0.234375)"/>
</clipPath>
</defs>
</svg>
