<svg width="50" height="50" viewBox="0 0 50 50" fill="none" xmlns="http://www.w3.org/2000/svg">
<path d="M24.9688 32.1L31.7229 39.7791C34.2229 42.6229 35.475 44.0458 36.7854 43.6979C38.0938 43.3521 38.5438 41.4812 39.4417 37.7375L44.4209 16.9708C45.8063 11.2041 46.4979 8.3229 44.9604 6.89998C43.4229 5.47706 40.7584 6.5354 35.4292 8.64998L10.7084 18.4687C6.44586 20.1625 4.31461 21.0083 4.1792 22.4625C4.16325 22.6107 4.16325 22.7601 4.1792 22.9083C4.31045 24.3646 6.43753 25.2166 10.6959 26.9229C12.6229 27.6958 13.5875 28.0833 14.2792 28.8229C14.357 28.9062 14.432 28.9923 14.5042 29.0812C15.1417 29.8729 15.4125 30.9146 15.9563 32.9896L16.975 36.8791C17.5021 38.9 17.7667 39.9125 18.4604 40.05C19.1542 40.1875 19.7563 39.35 20.9625 37.6729L24.9688 32.1ZM24.9688 32.1L24.3084 31.4125C23.5542 30.625 23.1771 30.2333 23.1771 29.7458C23.1771 29.2583 23.5521 28.8646 24.3084 28.0791L31.7521 20.3208" stroke="white" stroke-width="1.5" stroke-linecap="round" stroke-linejoin="round"/>
</svg>
