<svg width="50" height="50" viewBox="0 0 50 50" fill="none" xmlns="http://www.w3.org/2000/svg">
<g clip-path="url(#clip0_3_71)">
<path d="M25 0C11.2167 0 0 11.2167 0 25C0 38.7833 11.2167 50 25 50C38.7833 50 50 38.7833 50 25C50 11.2167 38.7833 0 25 0ZM25 1.61458C37.9 1.61458 48.3854 12.1 48.3854 25C48.3854 37.9 37.9 48.3854 25 48.3854C12.1 48.3854 1.61458 37.9 1.61458 25C1.61458 12.1 12.1 1.61458 25 1.61458ZM18.55 13.7167C15.7167 13.7167 13.3 16.1333 13.3 20.5646L16.1167 20.9667C16.5167 18.15 17.3167 16.9354 18.9333 16.9354C20.55 16.9354 21.3646 17.3312 24.1833 18.95C26.9979 20.5667 27.7979 20.9667 30.6312 20.9667C33.4646 20.9667 36.2854 18.9479 35.8854 14.1146H33.0625C33.0625 16.5312 32.2667 17.75 30.65 17.75C29.0333 17.75 28.2146 17.3521 24.9979 15.7354C21.7812 14.1187 21.3812 13.7167 18.5479 13.7167H18.55ZM22.9812 20.9667V39.5187H26.2167V22.1854L22.9812 20.9667Z" fill="white"/>
</g>
<defs>
<clipPath id="clip0_3_71">
<rect width="50" height="50" fill="white"/>
</clipPath>
</defs>
</svg>
