<svg width="50" height="50" viewBox="0 0 50 50" fill="none" xmlns="http://www.w3.org/2000/svg">
<g clip-path="url(#clip0_3_31)">
<path d="M26.1667 23.3937V15.6937C26.1667 13.9583 25.8521 13.6104 24.125 13.6104L19.2292 13.5C17.7042 13.5 16.9417 13.5 16.6334 13.9937C16.325 14.4875 16.6667 15.1645 17.3479 16.5145C17.7271 17.2645 17.9313 17.8083 17.9313 18.65V24.1916C17.9313 25.9416 17.9313 26.8187 17.2646 27.0791C16.5979 27.3375 16.0459 26.75 14.9375 25.575C12.2292 22.6916 10.8167 19.0916 9.88961 15.1666C9.69794 14.3541 9.60211 13.9479 9.31461 13.7229C9.02711 13.4979 8.61669 13.5 7.80003 13.5H3.21669C2.21253 13.5 1.71044 13.5 1.39586 13.8541C1.08336 14.2104 1.14378 14.6645 1.26461 15.5708C2.36461 23.752 9.55836 37.1666 22.8479 38.4458C25.2021 38.6708 26.1667 38.0354 26.1667 35.4562C26.1667 33.9937 26.1354 31.6312 27.975 31.3208C28.9396 31.1583 29.5875 31.502 30.6646 32.4041C32.5313 33.9708 33.5104 35.8833 34.1917 37.3354C34.6438 38.2979 34.9792 38.5 36.0417 38.5H40.3625C42.5459 38.5 43.1396 37.9666 42.1667 35.9166C41.0671 33.6176 39.5104 31.5668 37.5917 29.8895C36.2667 28.75 35.6063 28.1812 35.5709 27.7604C35.5313 27.3416 36.0167 26.7479 36.9875 25.5604C38.8625 23.2645 41.4167 19.6625 42.6084 15.8396C43.2 13.9437 42.6438 13.5 40.725 13.5H36.8438C34.9625 13.5 34.9646 13.4354 34.5209 15.5687C33.8 19.0291 31.4417 22.3562 29.225 24.6208C28.1729 25.6958 27.5375 26.3437 26.8813 26.0791C26.225 25.8145 26.1667 25.0104 26.1667 23.3937Z" stroke="white" stroke-width="1.5" stroke-linecap="round" stroke-linejoin="round"/>
</g>
<defs>
<clipPath id="clip0_3_31">
<rect width="50" height="50" fill="white"/>
</clipPath>
</defs>
</svg>
